<svg width="200" height="200" viewBox="0 0 200 200" fill="none" xmlns="http://www.w3.org/2000/svg">
<circle cx="100" cy="100" r="100" fill="#FCA26D"/>
<path d="M133.713 44.0925C129.874 46.2885 120.176 53.1759 111.993 59.4644C99.1639 69.3463 96.6384 70.9434 93.4058 70.9434C90.0721 70.9434 89.264 70.3445 85.4252 65.4534C75.6263 52.8764 69.363 51.3792 69.262 61.7602C69.262 62.958 70.8783 68.0487 72.7977 72.9397C74.7171 77.8308 76.3334 82.7218 76.3334 83.72C76.3334 86.0158 69.8681 92.1046 58.4529 100.689C43.805 111.669 40.7744 116.061 42.3907 124.046C44.2091 132.93 47.2397 132.131 69.7671 117.358C80.1722 110.471 89.264 104.981 89.8701 105.181C90.4762 105.38 95.4262 110.97 100.881 117.658C112.701 132.231 125.631 145.207 136.036 153.093C144.522 159.381 147.552 160.579 153.614 159.781C157.048 159.381 157.654 158.882 157.957 156.686C158.261 154.391 157.048 153.093 150.886 148.002C137.551 137.222 127.348 125.843 114.317 107.476C104.619 93.7017 104.417 91.905 111.993 85.7163C114.822 83.2209 122.196 77.5313 128.258 72.9397C134.319 68.3481 142.4 61.5605 146.239 57.9671C152.603 51.9781 153.21 51.0797 152.502 48.3847C151.492 43.9927 147.249 40 143.613 40C141.794 40.0998 137.551 41.7967 133.713 44.0925Z" fill="black"/>
<path d="M196 100C196 153.019 153.019 196 100 196C46.9807 196 4 153.019 4 100C4 46.9807 46.9807 4 100 4C153.019 4 196 46.9807 196 100ZM8.8 100C8.8 150.368 49.6316 191.2 100 191.2C150.368 191.2 191.2 150.368 191.2 100C191.2 49.6316 150.368 8.8 100 8.8C49.6316 8.8 8.8 49.6316 8.8 100Z" fill="#484848"/>
</svg>
